<svg width="320" height="320" viewBox="0 0 320 320" fill="none" xmlns="http://www.w3.org/2000/svg">
<rect x="2" y="2" width="316" height="316" stroke="white" stroke-width="4"/>
<path d="M108.438 103.25H115.5L126.062 139.375L123.5 147H121.125L108.438 103.25ZM124.062 121.188L129.812 103.25H136.938C136.562 104.5 135.667 107.333 134.25 111.75C130.833 122.458 128.708 129.229 127.875 132.062H127.25L124.062 121.188ZM140 147V103.25H162.75V110.125H147V121.75H156.875V128.75H147V140.062H162.75V147H140ZM167.75 147V103.25H174.75V140.125H191.25V147H167.75ZM194.75 134.812V114.25C194.75 112.042 195.688 109.792 197.562 107.5C200.062 104.5 203.229 102.979 207.062 102.938V109.875C204.896 109.917 203.271 111.083 202.188 113.375C201.854 114.125 201.688 114.75 201.688 115.25V134.812C201.688 137.062 202.854 138.729 205.188 139.812C205.896 140.146 206.5 140.312 207 140.312V147.312C204.625 147.312 202.25 146.458 199.875 144.75C196.5 142.25 194.792 138.938 194.75 134.812ZM210.438 147.312V140.312C211.521 140.312 212.646 139.812 213.812 138.812C215.062 137.688 215.708 136.354 215.75 134.812V115.25C215.75 114 215.208 112.792 214.125 111.625C213.083 110.5 211.854 109.917 210.438 109.875V102.938C214.646 102.938 218.021 104.75 220.562 108.375C222.021 110.458 222.75 112.417 222.75 114.25V134.812C222.75 139.438 220.688 142.979 216.562 145.438C214.396 146.688 212.354 147.312 210.438 147.312ZM118.219 231.688C118.219 234.104 119.115 236.458 120.906 238.75C123.323 241.75 126.552 243.271 130.594 243.312V236.375C128.135 236.375 126.448 235.292 125.531 233.125C125.281 232.542 125.156 232.062 125.156 231.688V210.625C125.156 209.5 125.677 208.417 126.719 207.375C127.802 206.417 129.094 205.917 130.594 205.875V198.938C125.885 198.938 122.344 200.938 119.969 204.938C118.802 206.896 118.219 208.792 118.219 210.625V231.688ZM133.781 243.312C137.073 243.312 139.927 242.021 142.344 239.438C144.427 237.146 145.469 234.542 145.469 231.625L138.719 230C138.719 230.458 138.698 230.75 138.656 230.875C138.656 231.75 138.552 232.5 138.344 233.125C138.01 233.958 137.469 234.646 136.719 235.188C135.969 235.729 135.281 236.062 134.656 236.188L133.781 236.375V243.312ZM133.781 205.875C133.781 205.875 134.323 206.042 135.406 206.375C136.823 207.083 137.802 208.104 138.344 209.438C138.552 210.062 138.656 210.771 138.656 211.562V212.5L145.469 210.75C145.469 207.542 144.135 204.688 141.469 202.188C139.094 200.021 136.531 198.938 133.781 198.938V205.875ZM149.656 243V199.25H156.656V243H149.656ZM160.281 206.062V199.25H187.344V206.062H177.344V243H170.344V206.062H160.281ZM189.469 199.25H196.719L205.844 227.188V243H198.656V227.25L189.469 199.25ZM204.406 211.438L208.969 199.25H216.156L208.156 222.688H207.656L204.406 211.438Z" fill="white"/>
<line x1="70" y1="174" x2="249" y2="174" stroke="white" stroke-width="2"/>
</svg>
