<svg xmlns="http://www.w3.org/2000/svg" viewBox="0 0 1024 655.38"><defs><style>.cls-1{fill:#ffd83b;}.cls-2{font-size:150.38px;stroke:#000;stroke-miterlimit:10;stroke-width:0.75px;font-family:PostNoBillsJaffna-Regular, Post No Bills Jaffna;}</style></defs><title>Ресурс 1</title><g id="Слой_2" data-name="Слой 2"><g id="Слой_2-2" data-name="Слой 2"><path d="M853.66,326.12c-10.9,0-10.15-11.93-11.11-19.55-1.92-14.54-4.8-18.93,10.36-23l2.47-4.32-10.57-39.51c-1.16-4.25-6-2.05-8.91-1.23-10.5,2.81-12.83-8.71-15.85-16L815.8,213c-5.07-11.25,8.85-13.72,9.88-17.29V193L805.1,157.54c-2.19-3.77-6.38-.48-8.78,1-9.6,5.76-14.74-4.73-19.68-11.11-9.12-11.8-13.72-13.72-2.54-25.17v-5.28L745,88.06c-3.15-3.15-6.44,1.44-8.5,3.43-7.68,7.68-15.43-1.16-21.67-6s-16.74-9.74-11.32-19.41c1.44-2.47,5-6.86,1.1-9.06L668.76,36.49c-3.36-1.72-5.49,3.22-6.86,5.35-5.49,9.87-15.3,3.29-22.7,0-12.49-5.22-19.28-5.35-14.75-20.58a3.62,3.62,0,0,0,0-2.67l-2.13-1.65L582.82,6.38a3.65,3.65,0,0,0-2.68,0l-2.88,6.86c-2.81,10.56-14.12,6.86-21.67,5.69C540.91,17,536,18.93,536,3L532.41,0H491.26c-4.46,0-3.5,5.42-3.57,8.37,0,10.9-11.93,10.15-19.54,11.11-14.48,1.92-18.93,4.87-23-10.36l-4.32-2.47L401.41,17.21c-4.25,1.17-2.05,6-1.23,9,2.81,10.49-8.85,12.89-16,15.84l-9.54,4.12c-8.43,3.84-12.48-3.57-15.08-8.23l-4.87-1.31L319.25,57.2c-3.71,2.26-.55,6.24,1,8.78,5.76,9.6-4.73,14.74-11.11,19.68-11.8,9.06-13.72,13.72-25.17,2.54h-5.28l-28.88,28.74v5l3.43,3.5c7.61,7.68-1.17,15.5-6,21.67s-9.74,16.81-19.41,11.32c-2.46-1.44-6.85-5-9-1.1L198.2,193.2c-1.72,3.36,3.22,5.49,5.35,6.86,9.87,5.49,3.29,15.3,0,22.7s-5.35,18.8-15.85,16l-7.27-.89L178.79,240l-10.57,39.5a3.65,3.65,0,0,0,0,2.68l6.86,2.88c10.56,2.81,6.86,14.13,5.7,21.67-1.93,14.68,0,19.62-16,19.62l-3.49,3.49V371c0,4.45,5.42,3.49,8.36,3.56,10.91,0,10.15,11.94,11.12,19.55,1.8,13.63,4.44,18.34-7.72,22.2-.81.26-1.69.52-2.64.77L168,421.39l10.56,39.5c1.17,4.25,6,2.06,8.92,1.23,10.49-2.81,12.82,8.71,15.84,16l4.6,9.19C212.94,498.54,199,501,198,504.58v2.67l20.58,35.46c2.05,3.77,6.44.48,8.77-1C237,536,242.09,546.48,247,552.86c9.19,11.8,13.72,13.72,2.54,25.17v5.28l29.08,28.88c3.15,3.15,6.44-1.44,8.5-3.43,7.68-7.68,15.43,1.17,21.67,6,1.33,1,2.85,2.06,4.37,3.16H436.54A277.61,277.61,0,0,1,314.7,154.59q9.26-9.3,19.36-17.69l1-.83c118.16-97.72,293.16-81.16,390.89,37a277.53,277.53,0,0,1-17.79,373.41v-.06a276.27,276.27,0,0,1-121.85,71.47H711.48c1.15-.82,2.28-1.62,3.3-2.41,11.79-9.19,13.71-13.72,25.17-2.54H745l28.88-29.63v-5c-3.84-3.84-10.09-9.6-4.12-16.81l12.62-16.39c7.41-10.83,16.26.62,20.58-.48a3.63,3.63,0,0,0,2.19-1.64l20.58-35.87c1.71-3.36-3.23-5.49-5.35-6.86-9.88-5.49-3.29-15.3,0-22.64,5.21-12.48,5.35-19.27,20.57-14.74a3.65,3.65,0,0,0,2.68,0l1.64-2.13,10.57-39.5a3.65,3.65,0,0,0,0-2.68l-6-2.54-.82-.34c-10.56-2.81-6.86-14.13-5.7-21.67,1.93-14.68,0-19.62,16-19.62l3.49-3.49V329.55C862,325.23,856.61,326.12,853.66,326.12Z"/><path d="M764.43,399.37q2-10.08,3.16-20.58l-68-29.76,67.83-29.7q-1.23-10.29-3.22-20.57l-89.44,39.71-46.63-20.58,29.83-40.46,97.46-10.91q-3.5-9.74-7.48-19.27l-73.79,8.23L718,195.88q-6.24-8.24-13-15.91l-58,78.59-50.62,5.63L602,214.12,680.9,156q-7.75-6.85-16.12-13L605,187.1l8.23-73.66q-9.47-4.05-19.27-7.34l-10.77,97.19L542,233.46l-20.23-46.15,39.44-89.85q-10.1-2-20.58-3.09l-29.77,68L481.18,94.58q-10.29,1.23-20.58,3.22l39.57,89.44L479.6,233.87,439.13,204,428.3,106.58q-9.81,3.49-19.34,7.48l8.23,73.79L357.59,144q-8.23,6.16-16,13l78.66,57.89,5.63,50.61-50.07-5.55-58.09-78.88q-6.86,7.75-13,16.12l44,59.81-73.59-8.3q-4.05,9.46-7.34,19.27L365,278.8,395.17,320,349,340.18l-89.84-39.44q-2,10.1-3.16,20.58l68,29.77-67.83,29.69q1.23,10.29,3.22,20.58L349,361.79l46.63,20.57-29.83,40.47-97.46,10.83q3.49,9.81,7.54,19.34l73.8-8.23-43.89,59.6q6.17,8.24,13,16l57.88-78.59,50.62-5.63-5.56,50.07-78.94,58q7.75,6.85,16.12,13l59.81-44-8.3,73.59q9.47,4.05,19.27,7.34L440.51,497l41.15-30.17L501.89,513l-39.44,89.78q10.08,2,20.58,3.16l29.76-68,29.7,67.83q10.29-1.23,20.58-3.22L523.49,513l20.58-46.63,40.46,29.83,10.91,97.46q9.73-3.49,19.27-7.48l-8.23-73.79,59.6,43.89q8.24-6.16,16-13L603.4,485.31l-5.63-50.62,50.07,5.62,58.09,78.88q6.86-7.76,13-16.12l-44-59.81,73.66,8.23q4.05-9.47,7.34-19.27l-97.19-10.77L628.5,380.3l46.15-20.23ZM392,281.54l36.21,4,2.06,18.58L413.83,311Zm36.83,89.16,1.3,4.66-3.57-1.57ZM426,328l3.57-1.57-1.23,4.73Zm-52.19,22.84,33.47-14.4,11.11,15-10.63,14.4Zm55.69,64.88-36.76,4.12,21.61-29.36,17.14,7.69ZM580.42,230.51l-4,36.22-18.58,2-6.86-16.39Zm-6.86,56.31-.41,3.84-3.5-3.43Zm-39.92-22.49,1.58,3.56-4.73-1.23Zm-22.83-52.2,14.74,33.47-15,11.11-14.4-10.63Zm-23.05,52.68,3.09,2.26-4.67,1.3ZM471.3,252.67l-7.48,17.14-17.55-2-4.12-36.76ZM452.37,288.4l-3.43,3.5-.41-3.5ZM443.25,470l4.05-36.21,18.58-2.06,6.86,16.39Zm6.86-56.58.41-3.84L454,413ZM490,435.93l-1.78-3.5,4.73,1.23Zm22.84,52.19-14.74-33.47,15-11.11,14.4,10.63Zm23-52.67-3.5-2.27,4.66-1.3Zm-70.54-39.19a65.5,65.5,0,1,1,92.83.23A65.65,65.65,0,0,1,465.37,396.26Zm109.7,15.59h-3.84l3.43-3.5Zm-23,35.46,7.75-16.8,17.77,2,4.11,36.76Zm42-162.75,36.76-4.12-21.61,29.49-17.14-7.81Zm1.16,84.56,2.33,3.16-3.56,1.58Zm-1.71-44.23,3.56,1.57-2.26,3.09Zm38.13,93.82-36.21-4-2.06-18.58,16.39-6.86Zm-15.36-54.87-11.11-15,10.63-14.4,34,15Z"/></g><g id="Слой_4" data-name="Слой 4"><polygon class="cls-1" points="547.89 350.93 514.39 336.99 550.1 298.26 469.95 346.99 503.45 360.93 467.74 399.66 547.89 350.93"/></g><g id="Слой_3" data-name="Слой 3"><path class="cls-1" d="M974.25,480.33,1021,413.7a16.78,16.78,0,0,0-13.72-26.43H866.78A16.78,16.78,0,0,0,850,404.06v26.49H174V404.06a16.78,16.78,0,0,0-16.77-16.79H16.77A16.78,16.78,0,0,0,3.05,413.7l46.7,66.63L3.05,547a16.78,16.78,0,0,0,13.72,26.43H140.46V602.1a16.78,16.78,0,0,0,16.76,16.79H866.78a16.78,16.78,0,0,0,16.76-16.79V573.38h123.69A16.78,16.78,0,0,0,1021,547ZM140.46,539.81H49L84,490a16.83,16.83,0,0,0,0-19.29L49,420.84h91.44Zm743.08,0v-119H975L940,470.68A16.83,16.83,0,0,0,940,490L975,539.81Z"/></g><g id="Слой_5" data-name="Слой 5"><text class="cls-2" transform="translate(256.7 577.31)">VELOCITY</text></g></g></svg>